{"title":"Dum Maaro Dum [2011] Trailer HD 1080p [rahultorrents]","uid":6254279,"size":40221906,"categoryP":"video","categoryS":"music_videos","magnet":"?xt=urn:btih:be2d907129fec1b26984eb557aa3a7caed0dbd8f&amp;dn=Dum+Maaro+Dum+%5B2011%5D+Trailer+HD+1080p+%5Brahultorrents%5D&amp;tr=udp%3A%2F%2Ftracker.openbittorrent.com%3A80&amp;tr=udp%3A%2F%2Fopen.demonii.com%3A1337&amp;tr=udp%3A%2F%2Ftracker.coppersurfer.tk%3A6969&amp;tr=udp%3A%2F%2Fexodus.desync.com%3A6969","seeders":0,"leechers":1,"uploader":"rahulro","files":-1,"time":1300522896,"description":"General:\nComplete name                    : Dum Maaro Dum (2011) Trailer HD 1080p [rahultorrents].mp4\nFormat                           : MPEG-4\nFormat profile                   : Base Media / Version 2\nCodec ID                         : mp42\nFile size                        : 38.4 MiB\nDuration                         : 1mn 21s\nOverall bit rate                 : 3 932 Kbps\n\nVideo:\nID                               : 1\nFormat                           : AVC\nFormat/Info                      : Advanced Video Codec\nFormat profile                   : &lt;a class=&quot;__cf_email__&quot; href=&quot;/cdn-cgi/l/email-protection&quot; data-cfemail=&quot;b9f1d0ded1f9f58d9789&quot;&gt;[email&amp;#160;protected]&lt;/a&gt;&lt;script cf-hash='f9e31' type=&quot;text/javascript&quot;&gt;\n/* &lt;![CDATA[ */!function(){try{var t=&quot;currentScript&quot;in document?document.currentScript:function(){for(var t=document.getElementsByTagName(&quot;script&quot;),e=t.length;e--;)if(t[e].getAttribute(&quot;cf-hash&quot;))return t[e]}();if(t&amp;&amp;t.previousSibling){var e,r,n,i,c=t.previousSibling,a=c.getAttribute(&quot;data-cfemail&quot;);if(a){for(e=&quot;&quot;,r=parseInt(a.substr(0,2),16),n=2;a.length-n;n+=2)i=parseInt(a.substr(n,2),16)^r,e+=String.fromCharCode(i);e=document.createTextNode(e),c.parentNode.replaceChild(e,c)}}}catch(u){}}();/* ]]&gt; */&lt;/script&gt;\nFormat settings, CABAC           : Yes\nFormat settings, ReFrames        : 1 frame\nCodec ID                         : avc1\nCodec ID/Info                    : Advanced Video Coding\nDuration                         : 1mn 21s\nBit rate mode                    : Variable\nBit rate                         : 3 800 Kbps\nMaximum bit rate                 : 24.1 Mbps\nWidth                            : 1 920 pixels\nHeight                           : 1 080 pixels\nDisplay aspect ratio             : 16:9\nFrame rate mode                  : Variable\nFrame rate                       : 24.000 fps\nMinimum frame rate               : 23.810 fps\nMaximum frame rate               : 24.390 fps\nColor space                      : YUV\nChroma subsampling               : 4:2:0\nBit depth                        : 8 bits\nScan type                        : Progressive\nBits/(Pixel*Frame)               : 0.076\nStream size                      : 37.1 MiB (97%)\n\nAudio:\nID                               : 2\nFormat                           : AAC\nFormat/Info                      : Advanced Audio Codec\nFormat profile                   : LC\nCodec ID                         : 40\nDuration                         : 1mn 21s\nBit rate mode                    : Variable\nBit rate                         : 126 Kbps\nMaximum bit rate                 : 186 Kbps\nChannel(s)                       : 2 channels\nChannel positions                : Front: L R\nSampling rate                    : 44.1 KHz\nCompression mode                 : Lossy\nStream size                      : 1.23 MiB (3%)\n\nBy RahulTorrents\n\n","torrent":{"xt":"urn:btih:be2d907129fec1b26984eb557aa3a7caed0dbd8f","amp;dn":"Dum+Maaro+Dum+%5B2011%5D+Trailer+HD+1080p+%5Brahultorrents%5D","amp;tr":["udp%3A%2F%2Ftracker.openbittorrent.com%3A80","udp%3A%2F%2Fopen.demonii.com%3A1337","udp%3A%2F%2Ftracker.coppersurfer.tk%3A6969","udp%3A%2F%2Fexodus.desync.com%3A6969"],"infoHash":"be2d907129fec1b26984eb557aa3a7caed0dbd8f","infoHashBuffer":{"type":"Buffer","data":[190,45,144,113,41,254,193,178,105,132,235,85,122,163,167,202,237,13,189,143]},"announce":[],"urlList":[]}}